<?xml version="1.0" encoding="utf-8"?>
<!-- Generator: Adobe Illustrator 18.1.1, SVG Export Plug-In . SVG Version: 6.00 Build 0)  -->
<svg version="1.2" baseProfile="tiny" id="Layer_1" xmlns="http://www.w3.org/2000/svg" xmlns:xlink="http://www.w3.org/1999/xlink"
	 x="0px" y="0px" viewBox="1214.7 1054.8 6074.5 3559.8" xml:space="preserve">
<g>
	<g>
		<path fill="#FFFFFF" d="M6786.1,4614.5H1717.9c-277.3,0-503.1-234.6-503.1-524.5V1579.2c0-288.9,225.9-524.5,503.1-524.5h3874.9
			v304.4H1717.9c-109.5,0-198.7,98.9-198.7,220.1V4091c0,121.2,89.2,220.1,198.7,220.1h5067.3c109.5,0,198.7-98.9,198.7-220.1
			V2751.3h304.4V4091C7289.2,4379.9,7063.3,4614.5,6786.1,4614.5z"/>
	</g>
	<g id="POLI_1_">
		<g>
			<path fill="#FFFFFF" d="M2644.6,1965.1c0,105.7-25.2,192.9-74.6,261.7c-65,90.2-171.6,134.8-321.9,134.8h-190v388.7h-304.4
				V1580.2h484.7c137.7,0,242.4,40.7,314.1,121.2C2613.6,1769.2,2644.6,1857.4,2644.6,1965.1z M2328.6,1968.9
				c0-43.6-12.6-78.5-37.8-104.7c-25.2-26.2-68.8-38.8-129.9-38.8h-102.8v291.8h101.8c65.9,0,111.5-14.5,135.7-42.7
				C2317.9,2047.5,2328.6,2012.6,2328.6,1968.9z"/>
		</g>
		<g>
			<path fill="#FFFFFF" d="M3993.1,2168.6c0,159-53.3,298.6-159,418.8c-120.2,136.7-284,204.6-489.6,204.6
				c-205.5,0-368.4-67.9-488.6-204.6c-105.7-120.2-159-259.8-159-418.8c0-72.7,14.5-147.4,42.7-223
				c28.1-76.6,66.9-141.5,115.4-195.8c120.2-136.7,284-204.6,489.6-204.6s369.4,68.8,489.6,204.6
				C3939.8,1870.1,3993.1,2009.7,3993.1,2168.6z M3677.1,2168.6c0-82.4-26.2-154.1-79.5-214.2c-67.9-76.6-152.2-115.4-254-115.4
				c-69.8,0-132.8,19.4-190,59.1c-57.2,39.7-96.9,91.1-121.2,157c-13.6,36.8-20.4,74.6-20.4,113.4c0,79.5,26.2,150.3,79.5,212.3
				c65,77.6,149.3,116.3,253,116.3c102.8,0,188.1-38.8,254-115.4C3650.9,2320.8,3677.1,2250.1,3677.1,2168.6z"/>
		</g>
		<g>
			<path fill="#FFFFFF" d="M4739.6,2750.3h-669.9V1580.2h304.4v917.1h365.5V2750.3z"/>
		</g>
		<g>
			<path fill="#FFFFFF" d="M5136.1,2750.3h-304.4V1580.2h304.4V2750.3z"/>
		</g>
	</g>
	<g id="RADIO">
		<g>
			<path fill="#FFFFFF" d="M2727,4090.1H2349l-290.8-449.8v449.8h-304.4V2919h473.1c138.6,0,240.4,41.7,307.3,124.1
				c53.3,66.9,80.5,145.4,80.5,235.6c0,103.7-31,186.1-93.1,248.2c-39.7,39.7-94,66.9-162.9,82.4L2727,4090.1z M2298.5,3296.1
				c0-41.7-15.5-76.6-45.6-104.7c-29.1-27.1-74.6-39.7-138.6-39.7h-56.2v291.8h57.2c64,0,110.5-13.6,138.6-39.7
				C2284,3373.7,2298.5,3337.8,2298.5,3296.1z"/>
		</g>
		<g>
			<path fill="#FFFFFF" d="M3978.6,4090.1h-324.8l-75.6-204.6h-419.8l-80.5,204.6h-321.9L3205.9,2919h331.5L3978.6,4090.1z
				 M3495.8,3653.8l-126-373.2l-128,373.2H3495.8z"/>
		</g>
		<g>
			<path fill="#FFFFFF" d="M5043,3504.5c0,122.1-36.8,234.6-110.5,338.3c-73.7,103.7-167.7,175.5-282.1,215.2
				c-61.1,21.3-122.1,32-185.2,32h-448.9V2919h449.8c109.5,0,211.3,31,305.4,92.1c92.1,59.1,162.9,138.6,212.3,238.5
				C5022.7,3332,5043,3416.3,5043,3504.5z M4727,3504.5c0-80.5-22.3-151.2-67.9-211.3c-60.1-79.5-150.3-119.2-268.5-119.2h-69.8
				V3837h69.8c120.2,0,209.4-39.7,268.5-119.2C4704.7,3655.8,4727,3585,4727,3504.5z"/>
		</g>
		<g>
			<path fill="#FFFFFF" d="M5413.4,4090.1H5109V2919h304.4V4090.1z"/>
		</g>
		<g>
			<path fill="#FFFFFF" d="M6778.3,3508.4c0,159-53.3,298.6-159,418.8c-120.2,136.7-284,204.6-489.6,204.6s-368.4-67.9-488.6-204.6
				c-105.7-120.2-159-259.8-159-418.8c0-72.7,14.5-147.4,42.7-223c28.1-76.6,66.9-141.5,115.4-195.8
				c120.2-136.7,284-204.6,489.6-204.6s369.4,68.8,489.6,204.6C6725,3208.8,6778.3,3349.4,6778.3,3508.4z M6462.3,3508.4
				c0-82.4-26.2-154.1-79.5-214.2c-67.9-76.6-152.2-115.4-254-115.4c-69.8,0-132.8,19.4-190,59.1c-57.2,39.7-96.9,91.1-121.2,157
				c-13.6,36.8-20.4,74.6-20.4,113.4c0,79.5,26.2,150.3,79.5,212.3c65,77.6,149.3,116.3,253,116.3c102.8,0,188.1-38.8,254-115.4
				C6436.1,3660.6,6462.3,3588.9,6462.3,3508.4z"/>
		</g>
	</g>
	<g>
		<path fill="#FFFFFF" d="M7289.2,2590.3h-304.4c0-678.6-552.6-1231.2-1231.2-1231.2v-304.4C6600,1054.8,7289.2,1744,7289.2,2590.3z
			"/>
	</g>
	<g>
		<path fill="#FFFFFF" d="M6853.9,2590.3h-304.4c0-439.2-357.7-795.9-795.9-795.9V1490C6360.5,1490,6853.9,1983.5,6853.9,2590.3z"/>
	</g>
	<g>
		<path fill="#FFFFFF" d="M6419.6,2590.3h-304.4c0-199.7-161.9-361.6-361.6-361.6v-304.4C6121.1,1924.3,6419.6,2222.9,6419.6,2590.3
			z"/>
	</g>
	<g>
		<path fill="#FFFFFF" d="M5986.3,2572.9c0,117.3-95,213.3-213.3,213.3c-117.3,0-213.3-95-213.3-213.3c0-117.3,95-213.3,213.3-213.3
			C5890.3,2360.6,5986.3,2455.6,5986.3,2572.9z"/>
	</g>
</g>
</svg>
